<svg width="23" height="31" viewBox="0 0 23 31" fill="none" xmlns="http://www.w3.org/2000/svg">
<path d="M17.4888 17.497V7.79856C17.4888 7.62833 17.4257 7.46507 17.3133 7.3447C17.201 7.22433 17.0487 7.15671 16.8898 7.15671H13.2513V4.82997C13.2513 3.54899 12.7765 2.32046 11.9313 1.41467C11.0861 0.508871 9.9397 0 8.74438 0C7.54906 0 6.4027 0.508871 5.55749 1.41467C4.71227 2.32046 4.23743 3.54899 4.23743 4.82997V7.15671H0.59893C0.440084 7.15671 0.287744 7.22433 0.175422 7.3447C0.0631012 7.46507 0 7.62833 0 7.79856V25.0196C0 25.7005 0.252405 26.3535 0.70169 26.835C1.15097 27.3165 1.76034 27.587 2.39572 27.587H11.8648C12.4332 28.5028 13.2089 29.2493 14.1193 29.757C15.0297 30.2646 16.0453 30.5169 17.0713 30.4902C18.0973 30.4635 19.1003 30.1587 19.9867 29.6043C20.8731 29.0499 21.614 28.2639 22.1402 27.3197C22.6665 26.3754 22.9611 25.3037 22.9964 24.2045C23.0317 23.1053 22.8067 22.0144 22.3422 21.0336C21.8778 20.0528 21.1891 19.2141 20.3404 18.5957C19.4917 17.9773 18.5106 17.5993 17.4888 17.497ZM5.43529 4.82997C5.43529 3.88945 5.78393 2.98744 6.4045 2.32239C7.02508 1.65734 7.86676 1.28371 8.74438 1.28371C9.62201 1.28371 10.4637 1.65734 11.0843 2.32239C11.7048 2.98744 12.0535 3.88945 12.0535 4.82997V7.15671H5.43529V4.82997ZM2.39572 26.3033C2.07803 26.3033 1.77335 26.1681 1.54871 25.9273C1.32406 25.6866 1.19786 25.3601 1.19786 25.0196V8.44042H4.23743V11.8102C4.23743 11.9804 4.30053 12.1437 4.41285 12.264C4.52517 12.3844 4.67752 12.452 4.83636 12.452C4.99521 12.452 5.14755 12.3844 5.25987 12.264C5.37219 12.1437 5.43529 11.9804 5.43529 11.8102V8.44042H12.0535V11.8102C12.0535 11.9804 12.1166 12.1437 12.2289 12.264C12.3412 12.3844 12.4936 12.452 12.6524 12.452C12.8112 12.452 12.9636 12.3844 13.0759 12.264C13.1882 12.1437 13.2513 11.9804 13.2513 11.8102V8.44042H16.2909V17.497C15.3628 17.5981 14.4691 17.9274 13.6792 18.4592C12.8893 18.991 12.2246 19.7111 11.7369 20.5632C11.2492 21.4154 10.9516 22.3767 10.8673 23.3723C10.783 24.3679 10.9143 25.371 11.2509 26.3033H2.39572ZM16.9228 29.2141C15.9579 29.2141 15.0148 28.9075 14.2125 28.3331C13.4103 27.7586 12.785 26.9421 12.4158 25.9868C12.0466 25.0316 11.95 23.9804 12.1382 22.9663C12.3264 21.9522 12.7911 21.0206 13.4733 20.2895C14.1555 19.5584 15.0248 19.0604 15.9711 18.8587C16.9174 18.657 17.8982 18.7605 18.7896 19.1562C19.681 19.5519 20.4429 20.222 20.9789 21.0817C21.515 21.9414 21.8011 22.9522 21.8011 23.9862C21.7995 25.3722 21.285 26.701 20.3705 27.681C19.456 28.6611 18.2161 29.2124 16.9228 29.2141Z" fill="black"/>
<path d="M19.2374 23.3445H17.5215V21.5056C17.5215 21.3354 17.4584 21.1721 17.3461 21.0518C17.2338 20.9314 17.0814 20.8638 16.9226 20.8638C16.7637 20.8638 16.6114 20.9314 16.4991 21.0518C16.3868 21.1721 16.3237 21.3354 16.3237 21.5056V23.3445H14.6077C14.4489 23.3445 14.2965 23.4122 14.1842 23.5325C14.0719 23.6529 14.0088 23.8162 14.0088 23.9864C14.0088 24.1566 14.0719 24.3199 14.1842 24.4403C14.2965 24.5606 14.4489 24.6283 14.6077 24.6283H16.3237V26.4672C16.3237 26.6374 16.3868 26.8007 16.4991 26.921C16.6114 27.0414 16.7637 27.109 16.9226 27.109C17.0814 27.109 17.2338 27.0414 17.3461 26.921C17.4584 26.8007 17.5215 26.6374 17.5215 26.4672V24.6283H19.2374C19.3963 24.6283 19.5486 24.5606 19.661 24.4403C19.7733 24.3199 19.8364 24.1566 19.8364 23.9864C19.8364 23.8162 19.7733 23.6529 19.661 23.5325C19.5486 23.4122 19.3963 23.3445 19.2374 23.3445Z" fill="black"/>
</svg>
