<svg width="41" height="42" viewBox="0 0 41 42" fill="none" xmlns="http://www.w3.org/2000/svg">
<path d="M6.90084 38.5119C8.45456 40.284 10.7887 42 13.4754 42C15.0039 42 16.3023 41.34 17.6977 40.8582C18.9829 40.4234 20.3417 40.2 21.7115 40.1982C23.033 40.1912 24.3426 40.4268 25.5634 40.8912C26.2108 41.142 26.851 41.4093 27.5091 41.6403C28.177 41.8768 28.8865 41.9987 29.6023 42C30.9266 41.9861 32.2153 41.6053 33.2996 40.9077C36.4502 38.9277 38.7844 35.4495 40.4388 32.4036C40.6042 32.1 40.7625 31.7931 40.9207 31.4895C41.1833 30.9813 40.7697 30.3378 40.036 29.9682C36.799 28.338 34.9037 25.8168 34.5872 22.3386C34.2707 18.8604 35.7453 16.1148 38.7052 14.1216L39.2879 13.6827C39.6116 13.4385 39.4353 12.762 38.8275 12.234C36.5886 10.2111 33.5892 9.05353 30.4475 9C29.8378 9.00027 29.2291 9.04663 28.6277 9.1386C25.8943 9.5676 23.7004 10.7622 21.1252 10.7622C20.3439 10.763 19.5673 10.6516 18.8234 10.4322C16.6655 9.7986 14.522 9 12.2273 9C11.9756 9 11.7202 9 11.4649 9.0297C8.63604 9.30631 5.99462 10.4599 3.97684 12.3C-0.000957641 15.897 -0.565618 21.4839 0.427033 26.2062C1.38012 30.78 3.72508 34.9017 6.90084 38.5119Z" fill="black"/>
<path d="M20.6923 8.99694C20.7418 9.00102 20.7916 9.00102 20.8411 8.99694C28.1553 7.73107 28.9549 2.48768 28.9999 0.572814C29.0015 0.495388 28.9858 0.418496 28.9538 0.346959C28.9219 0.275421 28.8744 0.21078 28.8142 0.157088C28.7541 0.103396 28.6827 0.0618103 28.6044 0.0349379C28.5262 0.00806543 28.4428 -0.00351435 28.3595 0.00092444C28.2978 0.000866921 28.2362 0.00733429 28.1761 0.0202016C20.7892 1.60736 20.0208 6.55195 20 8.39935C20.0017 8.4812 20.0212 8.56189 20.0572 8.63663C20.0932 8.71136 20.1451 8.7786 20.2097 8.83436C20.2743 8.89011 20.3503 8.93324 20.4332 8.96117C20.5161 8.9891 20.6042 9.00126 20.6923 8.99694ZM27.5322 1.50776C27.238 3.45475 26.023 6.45235 21.4538 7.54472C21.7307 5.71661 22.8938 2.8186 27.5322 1.50776Z" fill="black"/>
</svg>
