<svg width="26" height="28" viewBox="0 0 26 28" fill="none" xmlns="http://www.w3.org/2000/svg">
<path d="M25.208 7.89965H20.5888L16.7704 0.332905C16.732 0.256011 16.6813 0.188858 16.621 0.135307C16.5607 0.0817565 16.4921 0.042865 16.4191 0.0208695C16.3461 -0.00112597 16.2701 -0.00579133 16.1956 0.00714176C16.121 0.0200749 16.0494 0.0503513 15.9848 0.0962295C15.9201 0.142108 15.8638 0.202682 15.819 0.27447C15.7742 0.346257 15.7418 0.427841 15.7236 0.514528C15.7055 0.601216 15.702 0.691296 15.7134 0.779589C15.7247 0.867882 15.7507 0.952645 15.7897 1.029L19.2568 7.89965H6.28041L9.74727 1.029C9.78634 0.952645 9.81229 0.867882 9.82364 0.779589C9.83498 0.691296 9.83149 0.601216 9.81336 0.514528C9.79524 0.427841 9.76284 0.346257 9.71802 0.27447C9.67321 0.202682 9.61687 0.142108 9.55224 0.0962295C9.48761 0.0503513 9.41596 0.0200749 9.34143 0.00714176C9.26689 -0.00579133 9.19094 -0.00112597 9.11793 0.0208695C9.04492 0.042865 8.9763 0.0817565 8.91601 0.135307C8.85573 0.188858 8.80497 0.256011 8.76665 0.332905L4.94853 7.89965H0.79197C0.58201 7.89997 0.380729 7.999 0.232265 8.17503C0.083801 8.35105 0.000273705 8.58969 0 8.83862V12.7871C0.000273705 13.036 0.083801 13.2747 0.232265 13.4507C0.380729 13.6267 0.58201 13.7257 0.79197 13.7261H1.2829L3.84935 27.0676C3.87815 27.2172 3.94899 27.3509 4.05023 27.4466C4.15148 27.5423 4.27714 27.5943 4.40663 27.5943H21.5933C21.7228 27.5943 21.8485 27.5423 21.9497 27.4466C22.051 27.3509 22.1218 27.2172 22.1506 27.0676L24.7171 13.726H25.208C25.418 13.7257 25.6193 13.6267 25.7677 13.4506C25.9162 13.2746 25.9997 13.036 26 12.787V8.83859C25.9997 8.58966 25.9162 8.35102 25.7677 8.175C25.6192 7.99899 25.418 7.89996 25.208 7.89965ZM21.1376 26.2391H4.86233L2.45544 13.726H23.5445L21.1376 26.2391ZM24.8569 12.3708H1.14303V9.25485H24.8569V12.3708Z" fill="black"/>
<path d="M7.24461 22.7386C7.31967 22.7386 7.39399 22.7211 7.46334 22.687C7.53269 22.653 7.5957 22.6031 7.64878 22.5402C7.70185 22.4772 7.74395 22.4025 7.77266 22.3203C7.80137 22.2381 7.81614 22.15 7.81612 22.061V16.4774C7.81612 16.2977 7.75591 16.1253 7.64873 15.9983C7.54155 15.8712 7.39619 15.7998 7.24461 15.7998C7.09304 15.7998 6.94767 15.8712 6.84049 15.9983C6.73331 16.1253 6.6731 16.2977 6.6731 16.4774V22.061C6.67308 22.15 6.68785 22.2381 6.71656 22.3203C6.74527 22.4025 6.78737 22.4772 6.84044 22.5402C6.89352 22.6031 6.95653 22.653 7.02588 22.687C7.09523 22.7211 7.16955 22.7386 7.24461 22.7386V22.7386Z" fill="black"/>
<path d="M13 22.7386C13.075 22.7386 13.1494 22.7211 13.2187 22.687C13.2881 22.653 13.3511 22.6031 13.4041 22.5402C13.4572 22.4772 13.4993 22.4025 13.528 22.3203C13.5567 22.2381 13.5715 22.15 13.5715 22.061V16.4774C13.5715 16.2977 13.5113 16.1253 13.4041 15.9983C13.2969 15.8712 13.1516 15.7998 13 15.7998C12.8484 15.7998 12.703 15.8712 12.5959 15.9983C12.4887 16.1253 12.4285 16.2977 12.4285 16.4774V22.061C12.4284 22.15 12.4432 22.2381 12.4719 22.3203C12.5006 22.4025 12.5427 22.4772 12.5958 22.5402C12.6489 22.6031 12.7119 22.653 12.7812 22.687C12.8506 22.7211 12.9249 22.7386 13 22.7386V22.7386Z" fill="black"/>
<path d="M18.7554 22.7386C18.8304 22.7386 18.9047 22.7211 18.9741 22.687C19.0434 22.653 19.1064 22.6031 19.1595 22.5402C19.2126 22.4772 19.2547 22.4025 19.2834 22.3203C19.3121 22.2381 19.3269 22.15 19.3269 22.061V16.4774C19.3269 16.2977 19.2667 16.1253 19.1595 15.9983C19.0523 15.8712 18.9069 15.7998 18.7554 15.7998C18.6038 15.7998 18.4584 15.8712 18.3512 15.9983C18.2441 16.1253 18.1838 16.2977 18.1838 16.4774V22.061C18.1838 22.15 18.1986 22.2381 18.2273 22.3203C18.256 22.4025 18.2981 22.4772 18.3512 22.5402C18.4043 22.6031 18.4673 22.653 18.5366 22.687C18.606 22.7211 18.6803 22.7386 18.7554 22.7386V22.7386Z" fill="black"/>
</svg>
