<svg width="26" height="24" viewBox="0 0 26 24" fill="none" xmlns="http://www.w3.org/2000/svg">
<path d="M13 0C10.4288 0 7.91543 0.678286 5.77759 1.94908C3.63975 3.21988 1.97351 5.02612 0.989572 7.13938C0.00563265 9.25264 -0.251811 11.578 0.249797 13.8214C0.751405 16.0649 1.98953 18.1256 3.80762 19.743C5.6257 21.3604 7.94208 22.4619 10.4638 22.9081C12.9856 23.3544 15.5994 23.1254 17.9749 22.25C20.3503 21.3747 22.3806 19.8923 23.8091 17.9905C25.2376 16.0886 26 13.8526 26 11.5652C26 8.49791 24.6304 5.55626 22.1924 3.38736C19.7544 1.21847 16.4478 0 13 0ZM10.9173 14.6731C10.8094 14.7422 10.6872 14.7917 10.5577 14.8185C10.4283 14.8454 10.2941 14.8493 10.1629 14.8298C10.0318 14.8104 9.90628 14.768 9.79361 14.7052C9.68094 14.6425 9.58335 14.5604 9.50646 14.464L6.75194 11.087L8.36435 10.0411L10.5478 12.7307L18.0724 7.9492L19.2481 9.41352L10.9173 14.6731Z" fill="#FF3D00"/>
</svg>
