<svg width="56" height="58" viewBox="0 0 56 58" fill="none" xmlns="http://www.w3.org/2000/svg">
<mask id="mask0_993_727" style="mask-type:alpha" maskUnits="userSpaceOnUse" x="0" y="0" width="56" height="58">
<path d="M0.0047107 13.6886C0.0100527 13.7369 0.0218733 13.7829 0.0325572 13.8304C0.0446051 13.8841 0.0563688 13.9367 0.0750658 13.9882C0.0801805 14.0023 0.0810897 14.0175 0.0867158 14.0313C0.099673 14.0634 0.120188 14.0881 0.135419 14.118C0.152127 14.1511 0.162413 14.1876 0.18219 14.2189L27.2594 57.1265C27.2659 57.1367 27.2767 57.1405 27.2833 57.1504C27.3564 57.2584 27.4461 57.3437 27.5462 57.4122C27.575 57.4321 27.602 57.4498 27.6324 57.4657C27.7475 57.5264 27.8694 57.5696 28.0005 57.5696C28.1321 57.5696 28.2541 57.5263 28.3693 57.4655C28.3993 57.4498 28.4258 57.4322 28.4542 57.4128C28.5551 57.3439 28.6454 57.2583 28.7188 57.1492C28.7252 57.1397 28.7354 57.1361 28.7416 57.1265L55.8179 14.2189C55.8377 14.1876 55.848 14.1511 55.8647 14.118C55.8799 14.0881 55.9004 14.0634 55.9134 14.0313C55.919 14.0175 55.9199 14.0023 55.925 13.9882C55.9437 13.937 55.9553 13.8844 55.9674 13.8309C55.9782 13.7832 55.99 13.7366 55.9954 13.6881C56.0011 13.6368 56 13.5861 55.9998 13.5343C55.9996 13.4825 56.0004 13.4315 55.9943 13.3799C55.9885 13.3315 55.9762 13.2854 55.9652 13.2378C55.9528 13.1845 55.9409 13.1321 55.922 13.0814C55.917 13.0679 55.9161 13.0533 55.9107 13.04C55.8969 13.0063 55.8752 12.9801 55.8589 12.9487C55.842 12.9161 55.8314 12.8799 55.8116 12.8492L47.789 0.433167C47.6126 0.160107 47.3417 0 47.0543 0H35.9985H20.0025H8.94668C8.65935 0 8.38838 0.160107 8.21198 0.433167L0.188554 12.8492C0.170198 12.8775 0.160651 12.911 0.144852 12.941C0.126894 12.9749 0.103594 13.0035 0.0885344 13.04C0.0825673 13.0545 0.0814875 13.0707 0.0760887 13.0855C0.0587557 13.1325 0.048299 13.1809 0.0365353 13.2301C0.0244874 13.2807 0.0115302 13.3302 0.00550632 13.3819C-0.000347113 13.4316 0.000562071 13.481 0.000277993 13.5313C-6.17715e-06 13.5842 -0.00114273 13.6363 0.0047107 13.6886ZM17.9094 14.6619H38.0907L28.0005 52.7565L17.9094 14.6619ZM15.9548 14.6619L25.4699 50.5821L2.80181 14.6619H15.9548ZM30.531 50.5823L40.0453 14.6619H53.1983L30.531 50.5823ZM53.171 12.416H40.0403L37.2823 2.24589H46.5997L53.171 12.416ZM35.3238 2.24589L38.0816 12.416H17.9185L20.6772 2.24589H35.3238ZM9.40131 2.24589H18.7186L15.9598 12.416H2.82909L9.40131 2.24589Z" fill="black"/>
</mask>
<g mask="url(#mask0_993_727)">
<rect x="-57.6609" y="-159.517" width="163.873" height="245.191" fill="#304057"/>
</g>
</svg>
