<svg width="54" height="59" viewBox="0 0 54 59" fill="none" xmlns="http://www.w3.org/2000/svg">
<mask id="mask0_678_172" style="mask-type:alpha" maskUnits="userSpaceOnUse" x="0" y="0" width="54" height="58">
<mask id="mask1_678_172" style="mask-type:alpha" maskUnits="userSpaceOnUse" x="0" y="0" width="54" height="59">
<path d="M44.7844 23.2245C44.7844 20.0543 43.7414 16.9553 41.7872 14.3194C39.833 11.6835 37.0555 9.62902 33.8058 8.41584C30.5561 7.20266 26.9803 6.88524 23.5304 7.50371C20.0806 8.12218 16.9117 9.64877 14.4245 11.8904C11.9373 14.1321 10.2435 16.9881 9.55729 20.0974C8.87107 23.2067 9.22327 26.4295 10.5693 29.3584C11.9154 32.2873 14.1949 34.7906 17.1195 36.5519C20.0441 38.3132 23.4826 39.2532 27 39.2532C31.7151 39.2486 36.2357 37.5584 39.5698 34.5534C42.9039 31.5484 44.7793 27.4741 44.7844 23.2245ZM27 36.3389C24.1221 36.3389 21.3088 35.5698 18.916 34.1287C16.5231 32.6877 14.658 30.6395 13.5567 28.2432C12.4554 25.8468 12.1672 23.2099 12.7287 20.666C13.2901 18.122 14.676 15.7853 16.711 13.9512C18.7459 12.1171 21.3387 10.8681 24.1613 10.362C26.9839 9.85601 29.9096 10.1157 32.5684 11.1083C35.2272 12.1009 37.4998 13.7818 39.0986 15.9385C40.6975 18.0951 41.5509 20.6307 41.5509 23.2245C41.5466 26.7015 40.0122 30.0349 37.2843 32.4935C34.5564 34.9521 30.8578 36.3351 27 36.3389ZM33.9068 18.2934C34.0767 18.4083 34.2198 18.5521 34.328 18.7168C34.4361 18.8814 34.5073 19.0637 34.5373 19.2531C34.5673 19.4425 34.5556 19.6354 34.5029 19.8208C34.4503 20.0062 34.3576 20.1804 34.2302 20.3335L25.8553 30.2771C25.7047 30.4581 25.5095 30.605 25.285 30.7062C25.0605 30.8073 24.8129 30.86 24.5619 30.86C24.3095 30.8583 24.0611 30.8034 23.8365 30.6997C23.6119 30.5959 23.4174 30.4462 23.2685 30.2626L19.7698 25.9465C19.5168 25.6342 19.4118 25.2441 19.4779 24.8621C19.544 24.4801 19.7758 24.1374 20.1223 23.9093C20.4687 23.6813 20.9015 23.5867 21.3254 23.6463C21.7493 23.7058 22.1295 23.9147 22.3825 24.227L24.5975 26.9606L31.6498 18.5732C31.9089 18.2675 32.2915 18.0666 32.7144 18.0142C33.1372 17.9618 33.5658 18.0622 33.9068 18.2934ZM43.588 39.399C44.5631 39.4432 45.5375 39.2998 46.4463 38.9782C47.3551 38.6566 48.1775 38.1642 48.8587 37.5338C49.3091 36.7356 49.5652 35.8598 49.6098 34.9652C49.6544 34.0706 49.4865 33.1777 49.1174 32.3463C48.8248 31.4586 48.7152 30.5301 48.794 29.6068C49.3097 28.8584 49.9792 28.2056 50.7665 27.6834C51.6285 27.1925 52.3634 26.5402 52.9213 25.7709C53.4792 25.0016 53.8471 24.1332 54 23.2245C53.8471 22.3158 53.4792 21.4474 52.9213 20.678C52.3634 19.9087 51.6285 19.2565 50.7665 18.7656C49.9792 18.2434 49.3097 17.5905 48.794 16.8421C48.7152 15.9188 48.8248 14.9903 49.1174 14.1027C49.4865 13.2712 49.6544 12.3783 49.6098 11.4837C49.5652 10.5891 49.3091 9.71339 48.8587 8.91517C48.15 8.27707 47.2997 7.78107 46.3636 7.45965C45.4274 7.13823 44.4265 6.99864 43.4263 7.05C42.4159 7.05931 41.4142 6.88073 40.4838 6.52543C39.8194 5.83517 39.3138 5.03275 38.9964 4.16483C38.2204 2.53281 37.3473 0.667644 35.3425 0.0847801C34.3732 -0.0618113 33.3802 -0.0179155 32.4314 0.213464C31.4826 0.444843 30.6006 0.858242 29.8455 1.42537C28.9919 1.97353 28.0239 2.36016 27 2.56195C25.9761 2.36016 25.0081 1.97353 24.1545 1.42537C23.3985 0.85975 22.5163 0.447299 21.5678 0.215993C20.6194 -0.0153121 19.6268 -0.0600617 18.6575 0.0847801C16.6527 0.667644 15.7796 2.53281 15.0036 4.16483C14.6862 5.03275 14.1806 5.83517 13.5162 6.52543C12.5858 6.88073 11.5841 7.05931 10.5737 7.05C9.5735 6.99864 8.57259 7.13823 7.63645 7.45965C6.70031 7.78107 5.85004 8.27707 5.14132 8.91517C4.6909 9.71339 4.43482 10.5891 4.39021 11.4837C4.3456 12.3783 4.51348 13.2712 4.88263 14.1027C5.17524 14.9903 5.28484 15.9188 5.20599 16.8421C4.69025 17.5905 4.0208 18.2434 3.23353 18.7656C2.37146 19.2565 1.63656 19.9087 1.07866 20.678C0.52076 21.4474 0.152894 22.3158 0 23.2245C0.152894 24.1332 0.52076 25.0016 1.07866 25.7709C1.63656 26.5402 2.37146 27.1925 3.23353 27.6834C4.0208 28.2056 4.69025 28.8584 5.20599 29.6068C5.28484 30.5301 5.17524 31.4586 4.88263 32.3463C4.51348 33.1777 4.3456 34.0706 4.39021 34.9652C4.43482 35.8598 4.6909 36.7356 5.14132 37.5338C5.82251 38.1642 6.64488 38.6566 7.55368 38.9782C8.46248 39.2998 9.43687 39.4432 10.412 39.399L1.84311 49.4825C1.65569 49.7147 1.54757 49.9912 1.532 50.278C1.51644 50.5648 1.59411 50.8494 1.75549 51.097C1.91687 51.3446 2.15494 51.5443 2.44048 51.6716C2.72601 51.799 3.04659 51.8485 3.36287 51.814L10.8 50.9105L11.8024 57.6426C11.8496 57.9257 11.9882 58.1899 12.201 58.4024C12.4137 58.6149 12.6912 58.7662 12.9988 58.8375C13.136 58.8711 13.2771 58.8906 13.4192 58.8958C13.6698 58.8942 13.9168 58.8408 14.141 58.7398C14.3653 58.6387 14.5608 58.4927 14.7126 58.3129L26.903 43.9161C26.931 43.8972 26.965 43.887 27 43.887C27.035 43.887 27.069 43.8972 27.097 43.9161L39.2874 58.3129C39.4392 58.4927 39.6348 58.6387 39.859 58.7398C40.0832 58.8408 40.3302 58.8942 40.5808 58.8958C40.7229 58.8906 40.864 58.8711 41.0012 58.8375C41.3088 58.7662 41.5863 58.6149 41.799 58.4024C42.0118 58.1899 42.1504 57.9257 42.1976 57.6426L43.2 50.9105L50.6371 51.814C50.9534 51.8485 51.274 51.799 51.5595 51.6716C51.8451 51.5443 52.0831 51.3446 52.2445 51.097C52.4059 50.8494 52.4836 50.5648 52.468 50.278C52.4524 49.9912 52.3443 49.7147 52.1569 49.4825L43.588 39.399ZM14.4862 53.7666L13.8072 49.0745C13.74 48.6911 13.5103 48.3462 13.1665 48.1124C12.8226 47.8786 12.3916 47.7743 11.9641 47.8213L6.79042 48.4625L13.8072 40.1858C14.3029 40.8368 14.705 41.5419 15.0036 42.2841C15.7796 43.9161 16.6527 45.7813 18.6575 46.3642C19.3165 46.5528 20.0187 46.5829 20.6946 46.4516L14.4862 53.7666ZM27 40.9727C26.6068 40.9782 26.2159 41.0271 25.8359 41.1184C25.8036 41.1184 25.8036 41.1184 25.7713 41.1475C25.6361 41.1488 25.5032 41.1788 25.3832 41.235C25.3509 41.235 25.3186 41.2641 25.2539 41.2641C24.2943 41.5995 23.3737 42.0192 22.5054 42.5173C21.5353 43.0419 20.1772 43.7704 19.6599 43.5956C19.0455 43.4207 18.4311 42.1093 17.9784 41.1184C17.491 39.7587 16.609 38.5413 15.424 37.5921C15.0351 37.3294 14.597 37.132 14.1305 37.0092C13.9589 36.9303 13.7725 36.8809 13.5808 36.8635C12.6899 36.6641 11.7808 36.5373 10.8647 36.4846C9.7006 36.3972 8.11617 36.2515 7.76048 35.8143C7.40479 35.3772 7.76048 34.0075 8.01916 32.9874C8.52063 31.6046 8.60985 30.1272 8.27784 28.7034C7.62337 27.4142 6.60963 26.2997 5.33533 25.4685C4.3976 24.7399 3.23353 23.8073 3.23353 23.2245C3.23353 22.6416 4.3976 21.709 5.33533 20.9513C6.61505 20.1376 7.63079 19.031 8.27784 17.7456C8.60985 16.3218 8.52063 14.8444 8.01916 13.4615C7.76048 12.4415 7.40479 11.0718 7.76048 10.6346C8.11617 10.1975 9.7006 10.0518 10.8647 9.96432C12.4668 9.96824 14.041 9.58588 15.424 8.85688C16.609 7.9077 17.491 6.69022 17.9784 5.33055C18.4311 4.33969 19.0455 3.02824 19.6599 2.85338C19.7083 2.82695 19.7655 2.81664 19.8216 2.82424C20.7827 3.04513 21.6918 3.42027 22.5054 3.93168C23.8274 4.7929 25.3774 5.32558 27 5.47627C28.6226 5.32558 30.1726 4.7929 31.4946 3.93168C32.4647 3.4071 33.8228 2.70767 34.3401 2.85338C34.9545 3.02824 35.5689 4.33969 36.0216 5.33055C36.509 6.69022 37.391 7.9077 38.576 8.85688C39.959 9.58588 41.5332 9.96824 43.1353 9.96432C44.2994 10.0518 45.8838 10.1975 46.2395 10.6346C46.5952 11.0718 46.2395 12.4415 45.9808 13.4615C45.4794 14.8444 45.3902 16.3218 45.7222 17.7456C46.3692 19.031 47.385 20.1376 48.6647 20.9513C49.6024 21.709 50.7665 22.6416 50.7665 23.2245C50.7665 23.8073 49.6024 24.7399 48.6647 25.4685C47.3904 26.2997 46.3766 27.4142 45.7222 28.7034C45.3902 30.1272 45.4794 31.6046 45.9808 32.9874C46.2395 34.0075 46.5952 35.3772 46.2395 35.8143C45.8838 36.2515 44.2994 36.3972 43.1353 36.4846C42.1403 36.5378 41.1541 36.6843 40.1928 36.9218C40.1605 36.9218 40.1281 36.9509 40.0958 36.9509C39.548 37.0741 39.0319 37.2919 38.576 37.5921C37.391 38.5413 36.509 39.7587 36.0216 41.1184C35.5689 42.1093 34.9545 43.4207 34.3401 43.5956C33.8228 43.7413 32.4647 43.0419 31.4946 42.5173C30.6263 42.0192 29.7057 41.5995 28.7461 41.2641C28.6814 41.2641 28.6491 41.235 28.6168 41.235C28.4968 41.1788 28.3639 41.1488 28.2287 41.1475C28.1964 41.1184 28.1964 41.1184 28.1641 41.1184C27.7841 41.0271 27.3932 40.9782 27 40.9727ZM42.0359 47.8213C41.6084 47.7743 41.1774 47.8786 40.8335 48.1124C40.4897 48.3462 40.26 48.6911 40.1928 49.0745L39.5138 53.7666L33.3054 46.4516C33.6026 46.511 33.9063 46.5404 34.2108 46.539C34.5959 46.5354 34.978 46.4763 35.3425 46.3642C37.3473 45.7813 38.2204 43.9161 38.9964 42.2841C39.295 41.5419 39.6971 40.8368 40.1928 40.1858L47.2096 48.4625L42.0359 47.8213Z" fill="black"/>
</mask>
<g mask="url(#mask1_678_172)">
<rect x="-40.9479" y="-98.6948" width="175.491" height="156.543" fill="#F90C0C"/>
</g>
</mask>
<g mask="url(#mask0_678_172)">
<rect x="-104" y="-124.962" width="234" height="258.558" fill="#304057"/>
</g>
</svg>
