<svg width="63" height="76" viewBox="0 0 63 76" fill="none" xmlns="http://www.w3.org/2000/svg">
<mask id="mask0_993_736" style="mask-type:alpha" maskUnits="userSpaceOnUse" x="0" y="0" width="63" height="76">
<path d="M27.3045 0C27.1388 0 26.9824 0.0621458 26.8462 0.21751L19.3331 8.67347C19.0607 8.98006 19.0607 9.40472 19.3331 9.71131L26.8462 18.1673C26.9842 18.3226 27.1315 18.3848 27.3137 18.3848C27.4959 18.3848 27.6468 18.3164 27.7849 18.1611C28.0536 17.8545 28.0554 17.4319 27.7849 17.1274L21.389 9.92882H56.8802C59.5306 9.92882 61.7061 12.3774 61.7061 15.3604V60.0784C61.6877 63.0551 59.5177 65.4995 56.8673 65.4995H52.0672C51.6899 65.4995 51.4064 65.8206 51.4064 66.2494C51.4064 66.6782 51.688 66.9931 52.0672 66.9931H56.8636C60.2539 66.9931 63 63.9045 63 60.0866V15.3604C63 11.5446 60.2557 8.45389 56.8636 8.45389H21.3724L27.7683 1.25534C28.0407 0.948758 28.0407 0.524096 27.7683 0.21751C27.6339 0.0662888 27.4701 0 27.3045 0ZM6.13638 8.43939C2.74609 8.43939 0 11.528 0 15.3459V60.0494C0 63.8651 2.74609 66.96 6.13638 66.96H41.6276L35.2427 74.1461C34.9648 74.4651 34.974 74.9395 35.217 75.2129C35.355 75.3683 35.5023 75.4304 35.6845 75.4304C35.8667 75.4304 36.0213 75.3641 36.1612 75.2067L43.6651 66.757C43.9375 66.4504 43.9375 66.0257 43.6651 65.7191L36.1575 57.2632C35.8851 56.9566 35.5078 56.9566 35.2354 57.2632C34.963 57.5697 34.9648 58.0006 35.2354 58.3051L41.6276 65.4995H6.13638C3.48599 65.4995 1.31047 63.051 1.31047 60.068V15.3604C1.31047 12.3774 3.48599 9.92882 6.13638 9.92882H10.9328C11.3138 9.92882 11.5936 9.61187 11.5936 9.18514C11.5936 8.7584 11.312 8.44146 10.9328 8.44146H6.13638V8.43939Z" fill="black"/>
</mask>
<g mask="url(#mask0_993_736)">
<rect x="-47" y="-165.617" width="222" height="406.018" fill="#304057"/>
</g>
</svg>
