<svg version="1.2" baseProfile="tiny-ps" xmlns="http://www.w3.org/2000/svg" viewBox="0 0 23 25" width="23" height="25">
	<title>Vector (3)-svg</title>
	<style>
		tspan { white-space:pre }
		.shp0 { fill: #ff3d00 } 
	</style>
	<path id="Layer" class="shp0" d="M15.47 16.47L15.47 22.22C15.47 23.75 14.43 25 13.15 25L2.32 25C1.04 25 0 23.75 0 22.22L0 2.78C0 1.25 1.04 0 2.32 0L13.15 0C14.43 0 15.47 1.25 15.47 2.78L15.47 8.53C15.47 9.04 15.12 9.46 14.7 9.46C14.27 9.46 13.92 9.04 13.92 8.53L13.92 2.78C13.92 2.27 13.58 1.86 13.15 1.86L2.32 1.86C1.89 1.86 1.55 2.27 1.55 2.78L1.55 22.22C1.55 22.73 1.89 23.14 2.32 23.14L13.15 23.14C13.58 23.14 13.92 22.73 13.92 22.22L13.92 16.47C13.92 15.96 14.27 15.54 14.7 15.54C15.12 15.54 15.47 15.96 15.47 16.47ZM23 12.5C23 12.56 22.99 12.62 22.98 12.68C22.98 12.71 22.97 12.73 22.97 12.76C22.96 12.79 22.95 12.82 22.94 12.86C22.93 12.88 22.92 12.91 22.91 12.94C22.89 12.96 22.88 12.99 22.87 13.02C22.84 13.06 22.82 13.1 22.79 13.14C22.78 13.14 22.78 13.15 22.77 13.16L18.32 18.49C18.17 18.68 17.98 18.77 17.78 18.77C17.58 18.77 17.38 18.68 17.23 18.49C16.93 18.13 16.93 17.54 17.23 17.18L20.36 13.43L6.45 13.43C6.02 13.43 5.67 13.01 5.67 12.5C5.67 11.99 6.02 11.57 6.45 11.57L20.36 11.57L17.23 7.82C16.93 7.46 16.93 6.87 17.23 6.51C17.53 6.14 18.02 6.14 18.32 6.51L22.77 11.84C22.81 11.89 22.84 11.93 22.87 11.99C22.88 12 22.89 12.02 22.89 12.04C22.91 12.07 22.93 12.11 22.94 12.15C22.95 12.17 22.96 12.2 22.96 12.23C22.97 12.26 22.98 12.29 22.98 12.32C22.99 12.38 23 12.43 23 12.49C23 12.5 23 12.5 23 12.5Z" />
</svg>