<svg version="1.2" baseProfile="tiny-ps" xmlns="http://www.w3.org/2000/svg" viewBox="0 0 20 28" width="20" height="28">
	<title>Vector (1)-svg</title>
	<style>
		tspan { white-space:pre }
		.shp0 { fill: #ff3d00 } 
	</style>
	<path id="Layer" fill-rule="evenodd" class="shp0" d="M19.98 26.73C19.98 27.1 19.69 27.45 19.31 27.45L0.67 27.45C0.48 27.45 0.29 27.38 0.17 27.21C0.04 27.04 -0.02 26.83 0.01 26.62L1.65 8.62C1.69 8.24 1.97 7.97 2.32 7.97L5.36 7.97L5.36 5.05C5.36 2.27 7.44 0 10.01 0C12.57 0 14.66 2.27 14.66 5.05L14.66 7.97L17.7 7.97C18.05 7.97 18.33 8.24 18.36 8.62L19.98 26.52C20.01 26.55 20.01 26.62 19.98 26.73ZM6.72 7.94L13.3 7.94L13.3 5.02C13.3 3.02 11.81 1.44 10.01 1.44C8.17 1.44 6.72 3.06 6.72 5.02L6.72 7.94ZM1.72 23.02L18.27 23.02L17.03 9.41L14.6 9.41L14.6 10.89C14.6 11.27 14.31 11.61 13.93 11.61C13.58 11.61 13.27 11.3 13.27 10.89L13.27 9.41L6.72 9.41L6.72 10.89C6.72 11.27 6.43 11.61 6.05 11.61C5.7 11.61 5.39 11.3 5.39 10.89L5.39 9.41L2.95 9.41L1.72 23.02ZM18.55 25.94L18.43 24.49L1.56 24.49L1.43 25.94L18.55 25.94Z" />
</svg>