<svg width="29" height="24" viewBox="0 0 29 24" fill="none" xmlns="http://www.w3.org/2000/svg">
<path d="M17.8337 1.65402L1.52954 15.2048C1.29876 15.392 1.14766 15.6367 1.09911 15.9017L0.0193441 22.233C-0.0188288 22.451 -0.000365018 22.6732 0.0734923 22.8848C0.14735 23.0964 0.274886 23.2923 0.447514 23.4594C0.620143 23.6266 0.833856 23.761 1.07426 23.8538C1.31467 23.9465 1.5762 23.9954 1.84122 23.997C1.91907 24.001 1.99714 24.001 2.07499 23.997L9.83004 23.1983C10.164 23.1611 10.4728 23.0306 10.7057 22.8282L27.0099 9.28056C27.6316 8.78338 28.1278 8.18816 28.4695 7.52971C28.8111 6.87126 28.9914 6.1628 28.9997 5.44576C29.008 4.72872 28.8442 4.01751 28.5179 3.3537C28.1916 2.6899 27.7093 2.08685 27.0992 1.5798C26.4891 1.07276 25.7635 0.671903 24.9648 0.400688C24.1662 0.129472 23.3104 -0.00666055 22.4477 0.000250541C21.585 0.00716163 20.7325 0.156978 19.9403 0.440938C19.1481 0.724897 18.4319 1.1373 17.8337 1.65402ZM8.96919 20.7743L3.16589 21.388L3.9785 16.6604L17.6111 5.32697L22.5906 9.46559L8.96919 20.7743ZM25.9598 5.46575C25.961 5.85022 25.8704 6.23106 25.6934 6.58625C25.5163 6.94145 25.2563 7.26393 24.9283 7.53506L24.7056 7.72009L19.7075 3.58456L19.9302 3.39952C20.4214 2.98514 21.0501 2.70183 21.7359 2.58575C22.4218 2.46968 23.1337 2.52612 23.7808 2.74786C24.4279 2.96961 24.9808 3.34659 25.3689 3.83069C25.757 4.31478 25.9627 4.88403 25.9598 5.46575Z" fill="#847E7E"/>
</svg>
