<svg version="1.2" baseProfile="tiny-ps" xmlns="http://www.w3.org/2000/svg" viewBox="0 0 26 28" width="26" height="28">
	<title>Vector-svg</title>
	<style>
		tspan { white-space:pre }
		.shp0 { fill: #ff3d00 } 
	</style>
	<path id="Layer" fill-rule="evenodd" class="shp0" d="M21.34 24.25C21.32 24.27 21.31 24.28 21.29 24.29C19.04 26.26 16.15 27.45 13 27.45C9.86 27.45 6.97 26.27 4.72 24.29C4.7 24.28 4.68 24.27 4.66 24.25C1.81 21.72 0 17.95 0 13.72C0 6.16 5.83 0 13 0C20.17 0 26 6.16 26 13.72C26 17.95 24.18 21.72 21.34 24.25ZM13 26.54C15.86 26.54 18.5 25.48 20.58 23.72C20.47 19.41 17.11 15.93 13 15.93C8.89 15.93 5.53 19.41 5.42 23.72C7.5 25.48 10.14 26.54 13 26.54ZM25.14 13.72C25.14 6.66 19.7 0.91 13 0.91C6.3 0.91 0.86 6.66 0.86 13.72C0.86 17.36 2.3 20.63 4.59 22.96C4.98 19.28 7.49 16.28 10.8 15.34C9.4 14.52 8.44 12.94 8.44 11.12C8.44 8.47 10.48 6.32 12.99 6.32C15.51 6.32 17.55 8.47 17.55 11.12C17.55 12.93 16.59 14.52 15.19 15.34C18.5 16.28 21.01 19.28 21.4 22.96C23.7 20.63 25.14 17.36 25.14 13.72ZM13 15.02C15.04 15.02 16.69 13.27 16.69 11.12C16.69 8.97 15.04 7.23 13 7.23C10.96 7.23 9.31 8.97 9.31 11.12C9.31 13.27 10.96 15.02 13 15.02Z" />
</svg>