<svg width="28" height="28" viewBox="0 0 28 28" fill="none" xmlns="http://www.w3.org/2000/svg">
<mask id="mask0_1205:998" style="mask-type:alpha" maskUnits="userSpaceOnUse" x="6" y="3" width="19" height="22">
<mask id="mask1_1205:998" style="mask-type:alpha" maskUnits="userSpaceOnUse" x="6" y="3" width="19" height="22">
<path d="M15.6155 19.1878C15.5138 18.6834 14.9892 18.3061 14.4803 18.3827C14.0475 18.4446 13.6712 18.5703 13.3358 18.6809C13.039 18.7796 12.632 18.913 12.5302 18.8417C11.594 18.1858 10.7074 16.3039 10.2724 14.052C9.83389 11.7978 9.96175 9.76021 10.5931 8.8591C10.664 8.75789 11.0783 8.75126 11.4109 8.74577C11.7719 8.73583 12.1805 8.73009 12.6202 8.64389C13.1304 8.54377 13.4576 8.06233 13.357 7.54896L12.6469 3.89232C12.5508 3.40149 12.0477 3.02954 11.5458 3.08188C9.53121 3.28642 7.8988 4.39638 7.23543 5.34317C5.79546 7.39113 5.93236 11.4833 6.54197 14.6266C7.15497 17.7722 8.56413 21.6655 10.6955 23.1638L10.6989 23.1661C11.6793 23.853 13.6352 24.4106 15.6033 23.9982C16.1123 23.8924 16.4338 23.4119 16.3344 22.9041L15.6155 19.1878Z" fill="black"/>
<path d="M19.5119 15.6682C19.3855 15.8485 19.435 16.1011 19.6223 16.2324C19.8097 16.3636 20.064 16.3239 20.1903 16.1436C21.7687 13.8908 21.1485 10.7238 18.808 9.08387C18.6206 8.95261 18.3663 8.99238 18.24 9.17268C18.1137 9.35298 18.1631 9.60558 18.3505 9.73684C20.317 11.1147 20.838 13.7755 19.5119 15.6682Z" fill="black"/>
<path d="M16.5303 11.263C16.404 11.4433 16.4534 11.6959 16.6407 11.8272C17.4343 12.3832 17.6445 13.4567 17.1094 14.2204C16.983 14.4007 17.0325 14.6533 17.2198 14.7846C17.4072 14.9158 17.6615 14.8761 17.7878 14.6958C18.5751 13.5721 18.2658 11.9922 17.0983 11.1742C16.9109 11.0429 16.6566 11.0827 16.5303 11.263Z" fill="black"/>
<path d="M20.3348 6.55506C20.1475 6.4238 19.8932 6.46357 19.7669 6.64387C19.6405 6.82417 19.69 7.07677 19.8773 7.20803C23.3174 9.6183 24.2289 14.2727 21.9091 17.5837C21.7827 17.764 21.8322 18.0166 22.0195 18.1478C22.2069 18.2791 22.4612 18.2393 22.5875 18.059C25.1595 14.3881 24.149 9.22749 20.3348 6.55506Z" fill="black"/>
<path d="M14.6136 13.6669C14.7052 13.7311 14.8129 13.7579 14.9208 13.741C15.0287 13.7241 15.1221 13.6629 15.1816 13.5781C15.2411 13.4932 15.2666 13.3846 15.2434 13.2806C15.2047 13.0686 14.9775 12.9094 14.7638 12.9398C14.6594 12.9591 14.5627 13.0178 14.5031 13.1028C14.4437 13.1876 14.4214 13.2987 14.4424 13.4058C14.4601 13.5107 14.5253 13.6051 14.6136 13.6669Z" fill="black"/>
</mask>
<g mask="url(#mask1_1205:998)">
<rect x="-13.8394" y="-31.2539" width="109.529" height="68.1307" transform="rotate(35.0171 -13.8394 -31.2539)" fill="white"/>
</g>
</mask>
<g mask="url(#mask0_1205:998)">
<rect x="-6.69043" y="-44.0718" width="84.7722" height="57.8571" transform="rotate(35.0171 -6.69043 -44.0718)" fill="#757070"/>
</g>
</svg>
