<svg width="64" height="72" viewBox="0 0 64 72" fill="none" xmlns="http://www.w3.org/2000/svg">
<mask id="mask0_678_196" style="mask-type:alpha" maskUnits="userSpaceOnUse" x="0" y="0" width="64" height="72">
<path d="M15.5152 13.9964V5.82698C15.5152 2.60846 17.6798 0 20.354 0H35.8884C38.5589 0 40.7273 2.61531 40.7273 5.82698V13.9964H51.398C54.0754 13.9964 56.2424 16.5992 56.2424 19.8222V37.3296C56.2424 37.9738 55.8083 38.496 55.2727 38.496C54.7372 38.496 54.303 37.9738 54.303 37.3296V19.8222C54.303 17.8883 53.0049 16.3291 51.398 16.3291H44.6061V40.8227C44.6061 41.4669 44.1719 41.9891 43.6364 41.9891C43.1008 41.9891 42.6667 41.4669 42.6667 40.8227V16.3291H13.5758V58.3182H37.8182C38.3537 58.3182 38.7879 58.8404 38.7879 59.4846C38.7879 60.1287 38.3537 60.6509 37.8182 60.6509H4.84446C2.16701 60.6509 0 58.0481 0 54.8251V19.8222C0 16.6073 2.17407 13.9964 4.84446 13.9964H15.5152ZM11.6364 16.3291H4.84446C3.24449 16.3291 1.93939 17.8965 1.93939 19.8222V54.8251C1.93939 56.759 3.2375 58.3182 4.84446 58.3182H11.6364V16.3291ZM17.4545 13.9964H38.7879V5.82698C38.7879 3.9022 37.4866 2.33273 35.8884 2.33273H20.354C18.7517 2.33273 17.4545 3.89585 17.4545 5.82698V13.9964ZM50.8259 47.8209H54.303C59.6585 47.8209 64 53.0429 64 59.4846C64 65.9262 59.6585 71.1482 54.303 71.1482C48.9475 71.1482 44.6061 65.9262 44.6061 59.4846C44.6061 58.8404 45.0402 58.3182 45.5758 58.3182C46.1113 58.3182 46.5455 58.8404 46.5455 59.4846C46.5455 64.6379 50.0186 68.8155 54.303 68.8155C58.5874 68.8155 62.0606 64.6379 62.0606 59.4846C62.0606 54.3312 58.5874 50.1536 54.303 50.1536H50.8259L53.0493 52.828C53.428 53.2835 53.428 54.022 53.0493 54.4775C52.6706 54.933 52.0567 54.933 51.678 54.4775L47.7992 49.812C47.4205 49.3565 47.4205 48.618 47.7992 48.1626L51.678 43.4971C52.0567 43.0416 52.6706 43.0416 53.0493 43.4971C53.428 43.9526 53.428 44.6911 53.0493 45.1466L50.8259 47.8209Z" fill="black"/>
</mask>
<g mask="url(#mask0_678_196)">
<rect x="-41.697" y="-128.944" width="207.515" height="232.331" fill="#304057"/>
</g>
</svg>
