<svg version="1.2" baseProfile="tiny-ps" xmlns="http://www.w3.org/2000/svg" viewBox="0 0 28 25" width="28" height="25">
	<title>search-svg</title>
	<defs>
		<clipPath clipPathUnits="userSpaceOnUse" id="cp1">
			<path d="M27.77 23.81C28.08 24.09 28.08 24.53 27.77 24.8C27.47 25.07 26.98 25.07 26.67 24.8L18.3 17.32C18.14 17.18 17.88 17.17 17.72 17.29C17.72 17.29 17.59 17.39 17.37 17.54C15.56 18.74 13.32 19.44 10.89 19.44C4.88 19.44 0 15.09 0 9.72C0 4.35 4.88 0 10.89 0C16.9 0 21.78 4.35 21.78 9.72C21.78 11.84 21.02 13.8 19.73 15.4C19.54 15.63 19.37 15.82 19.37 15.82C19.23 15.97 19.24 16.2 19.4 16.34L27.77 23.81ZM10.89 18.06C16.04 18.06 20.22 14.32 20.22 9.72C20.22 5.12 16.04 1.39 10.89 1.39C5.73 1.39 1.56 5.12 1.56 9.72C1.56 14.32 5.73 18.06 10.89 18.06Z" />
		</clipPath>
	</defs>
	<style>
		tspan { white-space:pre }
		.shp0 { fill: #f90c0c } 
	</style>
	<g id="Clip-Path" clip-path="url(#cp1)">
		<g id="Layer">
			<path id="Layer" class="shp0" d="M-20.16 -37.7L94.08 -37.7L94.08 76.53L-20.16 76.53L-20.16 -37.7Z" />
		</g>
	</g>
</svg>