<svg width="78" height="47" viewBox="0 0 78 47" fill="none" xmlns="http://www.w3.org/2000/svg">
<mask id="mask0_993_726" style="mask-type:alpha" maskUnits="userSpaceOnUse" x="0" y="0" width="78" height="47">
<path d="M77.314 22.9244L67.576 9.04257H55.981V0H18.743V7.67442H7.625C7.072 7.67442 6.625 8.25575 6.625 8.97494C6.625 9.69413 7.072 10.2755 7.625 10.2755H18.743V26.2069H15.504C14.951 26.2069 14.504 26.7883 14.504 27.5075C14.504 28.2267 14.951 28.808 15.504 28.808H18.743V40.622H23.419C23.763 43.7263 25.802 46.1284 28.283 46.1284C30.765 46.1284 32.804 43.725 33.148 40.622H53.981H55.981H61.103C61.447 43.7263 63.486 46.1284 65.968 46.1284C68.449 46.1284 70.489 43.725 70.832 40.622H77.313V22.9244H77.314ZM28.283 43.5274C26.665 43.5274 25.348 41.8159 25.348 39.7116C25.348 37.6061 26.664 35.8933 28.283 35.8933C29.902 35.8933 31.219 37.6048 31.219 39.7116C31.219 41.8159 29.902 43.5274 28.283 43.5274ZM53.981 38.0209H33.022C32.447 35.3054 30.551 33.2935 28.283 33.2935C26.015 33.2935 24.12 35.3054 23.545 38.0209H20.743V2.60106H53.981V9.04257V38.0209ZM65.969 43.5274C64.35 43.5274 63.033 41.8159 63.033 39.7116C63.033 37.6061 64.349 35.8933 65.969 35.8933C67.587 35.8933 68.904 37.6048 68.904 39.7116C68.903 41.8159 67.587 43.5274 65.969 43.5274ZM75.314 38.0209H70.707C70.132 35.3054 68.236 33.2935 65.969 33.2935C63.7 33.2935 61.805 35.3054 61.23 38.0209H55.982V11.6436H66.694L75.315 23.9323V38.0209H75.314Z" fill="black"/>
<path d="M13.25 18.2428C13.25 17.5237 12.803 16.9424 12.25 16.9424H1C0.447 16.9424 0 17.5237 0 18.2428C0 18.9619 0.447 19.5432 1 19.5432H12.25C12.803 19.5432 13.25 18.9606 13.25 18.2428Z" fill="black"/>
<path d="M12.3109 26.207H11.1529C10.5999 26.207 10.153 26.7879 10.153 27.5066C10.153 28.2252 10.5999 28.8062 11.1529 28.8062H12.3109C12.8639 28.8062 13.3109 28.2252 13.3109 27.5066C13.3109 26.7879 12.8639 26.207 12.3109 26.207Z" fill="black"/>
</mask>
<g mask="url(#mask0_993_726)">
<rect x="-37.343" y="-150.182" width="228" height="323.818" fill="#304057"/>
</g>
</svg>
