<svg width="22" height="36" viewBox="0 0 22 36" fill="none" xmlns="http://www.w3.org/2000/svg">
<path d="M18.8011 9.83656L18.0676 32.1562C18.0532 32.5928 17.7469 32.9643 17.4002 32.9643H4.60022C4.25366 32.9643 3.94717 32.5918 3.93285 32.1562L3.19935 9.83656C3.17635 9.13695 2.71039 8.59343 2.15858 8.62258C1.60678 8.65173 1.17809 9.24251 1.20108 9.94212L1.93459 32.2618C1.99354 34.0557 3.18166 35.5001 4.60022 35.5001H17.4002C18.8179 35.5001 20.0068 34.058 20.0658 32.2618L20.7993 9.94212C20.8223 9.24251 20.3936 8.65173 19.8418 8.62258C19.29 8.59343 18.8241 9.13695 18.8011 9.83656Z" fill="#847E7E"/>
<path d="M10.2002 11.9179V29.1607C10.2002 29.7209 10.5584 30.175 11.0002 30.175C11.442 30.175 11.8002 29.7209 11.8002 29.1607V11.9179C11.8002 11.3577 11.442 10.9036 11.0002 10.9036C10.5584 10.9036 10.2002 11.3577 10.2002 11.9179Z" fill="#847E7E"/>
<path d="M5.80016 11.9477L6.20016 29.1905C6.21315 29.7505 6.58169 30.191 7.02333 30.1746C7.46497 30.1581 7.81245 29.6908 7.79946 29.1309L7.39946 11.888C7.38648 11.3281 7.01793 10.8875 6.57629 10.904C6.13465 10.9205 5.78717 11.3877 5.80016 11.9477Z" fill="#847E7E"/>
<path d="M14.6005 11.888L14.2005 29.1309C14.1876 29.6908 14.535 30.1581 14.9767 30.1746C15.4183 30.191 15.7869 29.7505 15.7999 29.1905L16.1999 11.9477C16.2128 11.3877 15.8654 10.9205 15.4237 10.904C14.9821 10.8875 14.6135 11.3281 14.6005 11.888Z" fill="#847E7E"/>
<path d="M1 6.84651H21C21.5523 6.84651 22 6.27887 22 5.57865C22 4.87843 21.5523 4.31079 21 4.31079H1C0.447715 4.31079 0 4.87843 0 5.57865C0 6.27887 0.447715 6.84651 1 6.84651Z" fill="#847E7E"/>
<path d="M7.96113 5.16616L8.37754 3.31838C8.46672 2.92262 8.87136 2.53571 9.19621 2.53571H12.803C13.1281 2.53571 13.5324 2.92229 13.6217 3.31838L14.0381 5.16616L15.9611 4.46955L15.5447 2.62177C15.2101 1.13693 14.0209 0 12.803 0H9.19621C7.97846 0 6.78901 1.13734 6.45449 2.62177L6.03809 4.46955L7.96113 5.16616Z" fill="#847E7E"/>
</svg>
