<svg width="21" height="23" viewBox="0 0 21 23" fill="none" xmlns="http://www.w3.org/2000/svg">
<path d="M13.3583 11.6278C15.05 10.5417 16.2167 8.56111 16.2167 6.26111C16.2167 2.81111 13.65 0 10.5 0C7.35 0 4.78333 2.81111 4.78333 6.26111C4.78333 8.56111 5.95 10.5417 7.64167 11.6278C3.325 12.9056 0.116667 17.1861 0 22.3611C0 22.5528 0.0583334 22.6806 0.175 22.8083C0.291667 22.9361 0.408333 23 0.583333 23H20.4167C20.5917 23 20.7083 22.9361 20.825 22.8083C20.9417 22.6806 21 22.4889 21 22.3611C20.8833 17.1861 17.675 12.9056 13.3583 11.6278ZM5.95 6.26111C5.95 3.51389 7.99167 1.27778 10.5 1.27778C13.0083 1.27778 15.05 3.51389 15.05 6.26111C15.05 9.00833 13.0083 11.2444 10.5 11.2444C7.99167 11.1806 5.95 8.94444 5.95 6.26111ZM1.225 21.7222C1.63333 16.4833 5.6 12.4583 10.5 12.4583C15.4 12.4583 19.3667 16.4833 19.775 21.7222H1.225Z" fill="black"/>
</svg>
