<svg version="1.2" baseProfile="tiny-ps" xmlns="http://www.w3.org/2000/svg" viewBox="0 0 23 20" width="23" height="20">
	<title>Vector (2)-svg</title>
	<style>
		tspan { white-space:pre }
		.shp0 { fill: #ff3d00 } 
	</style>
	<path id="Layer" fill-rule="evenodd" class="shp0" d="M9.23 17.89C5.54 14.56 0 9.54 0 5.92C0 2.66 2.93 0 6.51 0C8.44 0 10.21 1.41 11.5 3.26C12.69 1.56 14.56 0 16.49 0C20.07 0 23 2.66 23 5.92C23 9.54 17.43 14.56 13.77 17.89C13.02 18.61 12.36 19.2 11.89 19.65C11.79 19.75 11.66 19.8 11.5 19.8C11.34 19.8 11.21 19.75 11.11 19.65C10.66 19.18 9.98 18.58 9.23 17.89ZM6.51 0.95C3.5 0.95 1.05 3.19 1.05 5.92C1.05 9.14 6.61 14.2 9.96 17.23C10.53 17.75 11.08 18.23 11.5 18.63C11.92 18.23 12.47 17.75 13.04 17.23C16.39 14.2 21.95 9.14 21.95 5.92C21.95 3.19 19.5 0.95 16.49 0.95C14.66 0.95 12.96 2.93 11.94 4.33C11.84 4.47 11.68 4.54 11.5 4.54C11.32 4.54 11.16 4.47 11.06 4.33C10.04 2.93 8.34 0.95 6.51 0.95Z" />
</svg>